<svg width="48" height="48" viewBox="0 0 48 48" fill="none" xmlns="http://www.w3.org/2000/svg">
<path d="M32.7548 24.3633L21.1934 35.9246L15.2452 36.7345L16.083 30.7862L27.6164 19.2249L32.7548 24.3633Z" stroke="#2F72AE" stroke-width="3.43" stroke-linecap="round" stroke-linejoin="round"/>
<path d="M8.08213 9.67407C7.23778 9.67407 6.42804 10.0095 5.831 10.6065C5.23398 11.2036 4.89856 12.0133 4.89856 12.8576V39.918C4.89856 40.7623 5.23398 41.5722 5.831 42.1691C6.42804 42.766 7.23778 43.1016 8.08213 43.1016H39.9178C40.7621 43.1016 41.572 42.766 42.1689 42.1691C42.7659 41.5722 43.1014 40.7623 43.1014 39.918V12.8576C43.1014 12.0133 42.7659 11.2036 42.1689 10.6065C41.572 10.0095 40.7621 9.67407 39.9178 9.67407H8.08213Z" stroke="#AAB2E4" stroke-width="3.43" stroke-linecap="round" stroke-linejoin="round"/>
<path d="M12.8575 4.89868V14.4494" stroke="#2F72AE" stroke-width="3.43" stroke-linecap="round" stroke-linejoin="round"/>
<path d="M35.1425 4.89868V14.4494" stroke="#2F72AE" stroke-width="3.43" stroke-linecap="round" stroke-linejoin="round"/>
</svg>
