<svg width="48" height="48" viewBox="0 0 48 48" fill="none" xmlns="http://www.w3.org/2000/svg">
<path d="M14.91 42.5949C17.6538 43.9387 20.7388 44.6932 24 44.6932C35.4287 44.6932 44.6932 35.4287 44.6932 24C44.6932 12.5714 35.4287 3.30676 24 3.30676C12.5715 3.30676 3.30679 12.5714 3.30679 24C3.30679 28.2424 4.58346 32.1867 6.77357 35.4694M14.91 42.5949L3.30679 44.6932L6.77357 35.4694M14.91 42.5949L14.9268 42.592M6.77357 35.4694L6.77688 35.4608" stroke="#AAB2E4" stroke-width="3.43" stroke-linecap="round" stroke-linejoin="round"/>
<path d="M16.837 17.6328C16.3974 17.6328 16.0411 17.2765 16.0411 16.8369C16.0411 16.3974 16.3974 16.041 16.837 16.041" stroke="#2F72AE" stroke-width="3.43" stroke-linecap="round" stroke-linejoin="round"/>
<path d="M16.837 17.6328C17.2765 17.6328 17.6329 17.2765 17.6329 16.8369C17.6329 16.3974 17.2765 16.041 16.837 16.041" stroke="#2F72AE" stroke-width="3.43" stroke-linecap="round" stroke-linejoin="round"/>
<path d="M31.163 17.6328C30.7235 17.6328 30.3671 17.2765 30.3671 16.8369C30.3671 16.3974 30.7235 16.041 31.163 16.041" stroke="#2F72AE" stroke-width="3.43" stroke-linecap="round" stroke-linejoin="round"/>
<path d="M31.163 17.6328C31.6026 17.6328 31.9589 17.2765 31.9589 16.8369C31.9589 16.3974 31.6026 16.041 31.163 16.041" stroke="#2F72AE" stroke-width="3.43" stroke-linecap="round" stroke-linejoin="round"/>
<path d="M24 36.7343C30.1538 36.7343 35.1425 31.7456 35.1425 25.5918H12.8575C12.8575 31.7456 17.8462 36.7343 24 36.7343Z" stroke="#2F72AE" stroke-width="3.43" stroke-linecap="round" stroke-linejoin="round"/>
</svg>
