<svg width="44" height="44" viewBox="0 0 44 44" fill="none" xmlns="http://www.w3.org/2000/svg">
<path d="M15.7141 31.4284C24.3929 31.4284 31.4284 24.3929 31.4284 15.7141C31.4284 14.7306 31.3381 13.7681 31.1652 12.8345C30.2316 12.6617 29.2692 12.5713 28.2856 12.5713C19.6068 12.5713 12.5713 19.6068 12.5713 28.2856C12.5713 29.2692 12.6617 30.2317 12.8345 31.1652C13.7681 31.3381 14.7306 31.4284 15.7141 31.4284Z" fill="#175CD3"/>
<path fill-rule="evenodd" clip-rule="evenodd" d="M12.8347 31.1653C5.53118 29.8127 0 23.4095 0 15.7143C0 7.03553 7.03553 0 15.7143 0C23.4095 0 29.8128 5.53118 31.1653 12.8347C30.2318 12.6618 29.2693 12.5714 28.2857 12.5714C19.607 12.5714 12.5714 19.607 12.5714 28.2857C12.5714 29.2693 12.6618 30.2318 12.8347 31.1653Z" fill="#1570EF"/>
<path fill-rule="evenodd" clip-rule="evenodd" d="M15.7146 31.4284C24.3933 31.4284 31.4289 24.3928 31.4289 15.7141C31.4289 14.7305 31.3385 13.768 31.1656 12.8345C38.4691 14.187 44.0003 20.5903 44.0003 28.2855C44.0003 36.9643 36.9648 43.9998 28.286 43.9998C20.5908 43.9998 14.1875 38.4686 12.835 31.1651C13.7685 31.338 14.731 31.4284 15.7146 31.4284Z" fill="#2E90FA"/>
</svg>
