<svg width="76" height="77" viewBox="0 0 76 77" fill="none" xmlns="http://www.w3.org/2000/svg">
<rect y="0.833374" width="76" height="76" rx="8" fill="#F1F3FF"/>
<path fill-rule="evenodd" clip-rule="evenodd" d="M57.5165 52.935C57.7528 50.0269 58 45.4124 58 38.8334C58 32.2544 57.7528 27.6399 57.5165 24.7318C57.2791 21.8092 55.0242 19.5543 52.1016 19.3168C49.1935 19.0806 44.5791 18.8334 38 18.8334C31.421 18.8334 26.8065 19.0805 23.8984 19.3168C20.9759 19.5543 18.7209 21.8092 18.4835 24.7318C18.2472 27.6399 18 32.2543 18 38.8334C18 45.4124 18.2472 50.0268 18.4835 52.935C18.7209 55.8575 20.9759 58.1125 23.8984 58.3499C26.8065 58.5862 31.421 58.8334 38 58.8334C44.579 58.8334 49.1935 58.5862 52.1016 58.3499C55.0242 58.1125 57.2791 55.8575 57.5165 52.935ZM40.3876 49.6563C41.7695 50.6582 43.6735 50.4655 44.8082 49.1904C48.1647 45.4182 50.3182 42.0522 51.3959 40.1968C51.9602 39.2254 52.1101 38.0208 51.2686 37.2765C51.044 37.0778 50.7945 36.8932 50.5358 36.7338C49.4481 36.0636 48.2309 36.7307 47.4163 37.715C46.08 39.3293 43.9519 41.8639 42.422 43.5105C42.1245 43.8307 41.6388 43.8765 41.2895 43.6136C39.9301 42.5904 38.2352 41.1338 36.8829 39.9355C35.5301 38.7368 33.4913 38.6915 32.195 39.9511C29.9746 42.1085 27.6836 44.6376 25.7728 46.8748C24.5576 48.2976 24.413 50.3775 25.8147 51.617C26.0222 51.8007 26.2452 51.9846 26.4831 52.1644C26.6529 52.2928 26.8227 52.4128 26.9908 52.5251C28.6419 53.6272 30.6983 52.7594 31.7415 51.0705C32.6364 49.6216 33.7489 47.884 34.75 46.5043C35.0411 46.1032 35.6055 46.0352 35.996 46.3403C36.9198 47.0622 38.6278 48.3806 40.3876 49.6563ZM24.6667 27.2778C24.6667 26.296 25.4626 25.5 26.4444 25.5H35.3333C36.3152 25.5 37.1111 26.296 37.1111 27.2778C37.1111 28.2597 36.3152 29.0556 35.3333 29.0556H26.4444C25.4626 29.0556 24.6667 28.2597 24.6667 27.2778ZM26.4444 32.6112C25.4626 32.6112 24.6667 33.4071 24.6667 34.3889C24.6667 35.3708 25.4626 36.1667 26.4444 36.1667H31.7778C32.7596 36.1667 33.5556 35.3708 33.5556 34.3889C33.5556 33.4071 32.7596 32.6112 31.7778 32.6112H26.4444Z" fill="#031CA6"/>
</svg>
