<svg width="76" height="77" viewBox="0 0 76 77" fill="none" xmlns="http://www.w3.org/2000/svg">
<rect y="0.5" width="76" height="76" rx="8" fill="#F1F3FF"/>
<path fill-rule="evenodd" clip-rule="evenodd" d="M25.5555 18.5003C24.2604 18.5003 23.2186 18.5242 22.3866 18.5587C21.2124 18.6074 20.1111 19.021 19.2915 19.8029C18.4604 20.5955 18 21.691 18 22.9281C18 24.1652 18.4604 25.2607 19.2915 26.0533C20.1111 26.8352 21.2115 27.2488 22.3866 27.2975C23.2186 27.3329 24.2604 27.3559 25.5555 27.3559C26.8506 27.3559 27.8924 27.332 28.7244 27.2975C29.8986 27.2488 30.9999 26.8352 31.8195 26.0533C32.6506 25.2607 33.111 24.1652 33.111 22.9281C33.111 21.691 32.6506 20.5955 31.8195 19.8029C30.9999 19.021 29.8995 18.6074 28.7244 18.5587C27.6686 18.5174 26.6121 18.4979 25.5555 18.5003ZM25.5555 29.1271C24.2604 29.1271 23.2186 29.151 22.3866 29.1855C21.2124 29.2342 20.1111 29.6478 19.2915 30.4297C18.4604 31.2223 18 32.3178 18 33.5549C18 34.7921 18.4604 35.8875 19.2915 36.6801C20.1111 37.462 21.2115 37.8756 22.3866 37.9243C23.2186 37.9597 24.2604 37.9828 25.5555 37.9828C26.8506 37.9828 27.8924 37.9589 28.7244 37.9243C29.8986 37.8756 30.9999 37.462 31.8195 36.6801C32.6506 35.8875 33.111 34.7921 33.111 33.5549C33.111 32.3178 32.6506 31.2223 31.8195 30.4297C30.9999 29.6478 29.8995 29.2342 28.7244 29.1855C27.6686 29.1442 26.6121 29.1247 25.5555 29.1271ZM39.2754 18.5587C40.3312 18.517 41.3877 18.4975 42.4443 18.5003C43.7394 18.5003 44.7803 18.5242 45.6132 18.5587C46.7874 18.6074 47.8887 19.021 48.7083 19.8029C49.5394 20.5955 49.9998 21.691 49.9998 22.9281C49.9998 24.1652 49.5394 25.2607 48.7083 26.0533C47.8887 26.8352 46.7883 27.2488 45.6132 27.2975C44.7812 27.3329 43.7394 27.3559 42.4443 27.3559C41.1492 27.3559 40.1083 27.332 39.2754 27.2975C38.1012 27.2488 36.9999 26.8352 36.1803 26.0533C35.3492 25.2607 34.8888 24.1652 34.8888 22.9281C34.8888 21.691 35.3492 20.5955 36.1803 19.8029C36.9999 19.021 38.1003 18.6074 39.2754 18.5587ZM41.0372 29.2369C42.0087 29.1138 42.9927 29.1138 43.9643 29.236C45.6265 29.445 46.6727 30.9168 46.7874 32.4728C46.9527 34.7097 47.1812 38.0465 47.2167 39.8442L47.4265 39.8531C47.8354 39.8743 48.4185 39.916 49.126 39.9992C50.5376 40.1657 52.4469 40.4978 54.4309 41.1655C56.4718 41.8518 57.8762 43.6761 57.9766 45.8262C58.0922 48.3103 57.83 52.0252 56.0247 56.0333C55.7891 56.5532 55.429 57.0074 54.976 57.3561C54.5229 57.7047 53.9908 57.9372 53.4264 58.0329C48.8576 58.8211 43.8443 58.5111 39.3465 57.847C38.7135 57.757 38.1154 57.5026 37.6123 57.1093C33.7466 54.0532 30.5057 49.4872 29.2746 47.6417C28.8622 47.0235 28.6808 46.246 28.8968 45.4906C29.1839 44.4587 29.6884 43.4995 30.3768 42.6772C31.4879 41.3603 33.3226 41.4914 34.6381 42.3043C35.7202 42.9729 36.7769 43.6812 37.8061 44.4279C37.8328 39.4767 38.0745 35.0214 38.2452 32.455C38.3483 30.9062 39.3874 29.4459 41.0372 29.2369Z" fill="#031CA6"/>
</svg>
