<svg width="48" height="48" viewBox="0 0 48 48" fill="none" xmlns="http://www.w3.org/2000/svg">
<path d="M33.5507 20.8165C33.5507 23.3495 32.5445 25.7788 30.7534 27.5699C28.9623 29.361 26.533 30.3672 24 30.3672C21.467 30.3672 19.0377 29.361 17.2466 27.5699C15.4555 25.7788 14.4493 23.3495 14.4493 20.8165V13.8445C14.4487 13.574 14.5172 13.3078 14.6481 13.071C14.779 12.8343 14.968 12.6349 15.1974 12.4915C15.4268 12.3481 15.689 12.2656 15.9591 12.2516C16.2293 12.2377 16.4986 12.2928 16.7415 12.4119L24 16.0412L31.2585 12.4119C31.5015 12.2928 31.7707 12.2377 32.0409 12.2516C32.311 12.2656 32.5732 12.3481 32.8026 12.4915C33.032 12.6349 33.2211 12.8343 33.352 13.071C33.4828 13.3078 33.5514 13.574 33.5507 13.8445V20.8165Z" stroke="#2F72AE" stroke-width="3.43" stroke-linecap="round" stroke-linejoin="round"/>
<path d="M24 30.3672V43.1015" stroke="#2F72AE" stroke-width="3.43" stroke-linecap="round" stroke-linejoin="round"/>
<path d="M24 43.1015L31.9589 35.1426" stroke="#2F72AE" stroke-width="3.43" stroke-linecap="round" stroke-linejoin="round"/>
<path d="M24 43.1015L16.0411 35.1426" stroke="#2F72AE" stroke-width="3.43" stroke-linecap="round" stroke-linejoin="round"/>
<path d="M7.83727 43.1015H40.1627C41.7857 43.1015 43.1014 41.7858 43.1014 40.1628V7.83737C43.1014 6.21439 41.7857 4.89868 40.1627 4.89868H7.83727C6.21428 4.89868 4.89857 6.21439 4.89857 7.83737V40.1628C4.89857 41.7858 6.21428 43.1015 7.83727 43.1015Z" stroke="#AAB2E4" stroke-width="3.43" stroke-linecap="round" stroke-linejoin="round"/>
</svg>
