<svg width="48" height="48" viewBox="0 0 48 48" fill="none" xmlns="http://www.w3.org/2000/svg">
<path d="M4.89856 31.991L12.513 23.8595" stroke="#AAB2E4" stroke-width="3.43" stroke-linecap="round" stroke-linejoin="round"/>
<path d="M21.3862 23.2524L26.2688 27.8064" stroke="#AAB2E4" stroke-width="3.43" stroke-linecap="round" stroke-linejoin="round"/>
<path d="M32.7008 26.445L36.2221 16.7736" stroke="#AAB2E4" stroke-width="3.43" stroke-linecap="round" stroke-linejoin="round"/>
<path d="M16.7327 15.2567C19.6796 15.2567 22.0686 17.6457 22.0686 20.5927C22.0686 23.5397 19.6796 25.9287 16.7327 25.9287C13.7857 25.9287 11.3967 23.5397 11.3967 20.5927C11.3967 17.6457 13.7857 15.2567 16.7327 15.2567Z" stroke="#2F72AE" stroke-width="3.43" stroke-linecap="round" stroke-linejoin="round"/>
<path d="M37.7655 6.3363C40.7125 6.3363 43.1014 8.72532 43.1014 11.6723C43.1014 14.6193 40.7125 17.0083 37.7655 17.0083C34.8184 17.0083 32.4296 14.6193 32.4296 11.6723C32.4296 8.72532 34.8184 6.3363 37.7655 6.3363Z" stroke="#2F72AE" stroke-width="3.43" stroke-linecap="round" stroke-linejoin="round"/>
<path d="M30.3476 25.9286C33.2946 25.9286 35.6837 28.3176 35.6837 31.2646C35.6837 34.2116 33.2946 36.6006 30.3476 36.6006C27.4006 36.6006 25.0116 34.2116 25.0116 31.2646C25.0116 28.3176 27.4006 25.9286 30.3476 25.9286Z" stroke="#2F72AE" stroke-width="3.43" stroke-linecap="round" stroke-linejoin="round"/>
<path d="M4.89856 4.89856V43.1014H43.1014" stroke="#2F72AE" stroke-width="3.43" stroke-linecap="round" stroke-linejoin="round"/>
</svg>
