<svg width="76" height="77" viewBox="0 0 76 77" fill="none" xmlns="http://www.w3.org/2000/svg">
<rect y="0.166626" width="76" height="76" rx="8" fill="#F1F3FF"/>
<path fill-rule="evenodd" clip-rule="evenodd" d="M25.2912 19.6447C25.9394 17.6739 28.7273 17.6739 29.3755 19.6447L30.8141 24.0192L35.1885 25.4578C37.1594 26.106 37.1594 28.8939 35.1885 29.5421L30.8141 30.9808L29.3755 35.3552C28.7273 37.326 25.9394 37.326 25.2912 35.3552L23.8525 30.9808L19.4781 29.5421C17.5073 28.8939 17.5073 26.106 19.4781 25.4578L23.8525 24.0192L25.2912 19.6447ZM42.7956 23.3981C43.5306 21.1635 46.6916 21.1635 47.4266 23.3981L49.6285 30.0936L56.3241 32.2956C58.5586 33.0305 58.5586 36.1916 56.3241 36.9265L49.6285 39.1285L47.4266 45.824C46.6916 48.0586 43.5306 48.0586 42.7956 45.824L40.5937 39.1285L33.8981 36.9265C31.6635 36.1916 31.6635 33.0305 33.8981 32.2956L40.5937 30.0936L42.7956 23.3981ZM33.0171 39.2626C32.3417 37.2087 29.4361 37.2087 28.7606 39.2626L27.1387 44.1942L22.2071 45.8161C20.1532 46.4916 20.1532 49.3972 22.2071 50.0727L27.1387 51.6946L28.7606 56.6262C29.4361 58.6801 32.3417 58.6801 33.0171 56.6262L34.6391 51.6946L39.5707 50.0727C41.6246 49.3972 41.6246 46.4916 39.5707 45.8161L34.6391 44.1942L33.0171 39.2626Z" fill="#031CA6"/>
</svg>
