<svg width="48" height="48" viewBox="0 0 48 48" fill="none" xmlns="http://www.w3.org/2000/svg">
<path d="M18.5242 17.6965L30.3034 29.4757" stroke="#2F72AE" stroke-width="3.43" stroke-linecap="round" stroke-linejoin="round"/>
<path d="M19.8932 15.4362C13.7807 11.2657 8.08212 14.4493 3.30676 19.352L13.8762 25.7191" stroke="#2F72AE" stroke-width="3.43" stroke-linecap="round" stroke-linejoin="round"/>
<path d="M32.5638 28.1069C36.7343 34.2193 33.5507 39.9179 28.648 44.6932L22.2808 34.1238" stroke="#2F72AE" stroke-width="3.43" stroke-linecap="round" stroke-linejoin="round"/>
<path d="M13.8763 25.6872L22.3127 34.1237C29.0619 30.0805 36.7343 26.1647 40.2362 22.5354C47.8131 14.9585 43.4198 4.58009 43.4198 4.58009C43.4198 4.58009 33.0414 0.18676 25.4645 7.76365C21.8352 11.2656 17.8876 18.9698 13.8763 25.6872Z" stroke="#AAB2E4" stroke-width="3.43" stroke-linecap="round" stroke-linejoin="round"/>
<path d="M35.1425 14.4492C36.0215 14.4492 36.7343 13.7365 36.7343 12.8574C36.7343 11.9783 36.0215 11.2656 35.1425 11.2656C34.2635 11.2656 33.5507 11.9783 33.5507 12.8574C33.5507 13.7365 34.2635 14.4492 35.1425 14.4492Z" stroke="#2F72AE" stroke-width="3.43" stroke-linecap="round" stroke-linejoin="round"/>
<path d="M13.4305 41.3182C11.584 43.101 3.30676 44.6928 3.30676 44.6928C3.30676 44.6928 4.89855 36.4155 6.68135 34.5691C7.11852 34.1001 7.64572 33.7238 8.23149 33.4627C8.81727 33.2017 9.44962 33.0614 10.0908 33.0501C10.732 33.0388 11.3689 33.1567 11.9635 33.3969C12.5581 33.6369 13.0983 33.9944 13.5518 34.4481C14.0052 34.9014 14.3627 35.4417 14.6029 36.0364C14.843 36.6307 14.961 37.2678 14.9497 37.909C14.9384 38.5501 14.798 39.1824 14.537 39.7682C14.276 40.3539 13.8997 40.8811 13.4305 41.3182Z" stroke="#2F72AE" stroke-width="3.43" stroke-linecap="round" stroke-linejoin="round"/>
</svg>
